<svg width="116" height="117" viewBox="0 0 116 117" fill="none" xmlns="http://www.w3.org/2000/svg">
<path d="M35.4659 67H38.5859L34.6059 52.8H30.8259L26.8259 67H29.9459L30.7459 63.7H34.6659L35.4659 67ZM31.2859 61.48L32.2859 57.3C32.4459 56.64 32.5859 56.08 32.6859 55.26H32.7259C32.8459 56.08 32.9859 56.64 33.1259 57.3L34.1259 61.48H31.2859ZM43.1916 67V52.8H40.0916V67H43.1916ZM54.457 52.8H44.517V55.34H47.937V67H51.037V55.34H54.457V52.8ZM65.9956 52.8H62.8956V58.58H58.8556V52.8H55.7556V67H58.8556V60.98H62.8956V67H65.9956V52.8ZM71.59 64.66V60.88H76.33V58.56H71.59V55.14H76.63V52.8H68.49V67H76.77V64.66H71.59ZM85.4258 67H88.7458L86.1858 60.82C87.6458 60.24 88.4658 58.92 88.4658 57.06C88.4658 54.44 87.0258 52.8 83.7258 52.8H78.6658V67H81.7658V61.38H83.3258L85.4258 67ZM81.7658 59.36V54.94H83.2658C84.6458 54.94 85.2058 55.66 85.2058 57.06C85.2058 58.5 84.6258 59.36 83.2658 59.36H81.7658Z" fill="white"/>
</svg>
