<svg width="116" height="117" viewBox="0 0 116 117" fill="none" xmlns="http://www.w3.org/2000/svg">
<path fill-rule="evenodd" clip-rule="evenodd" d="M57.4013 49.2499C53.377 49.2499 50.1027 52.5242 50.1027 56.5485C50.1027 60.5728 53.377 63.847 57.4013 63.847C61.4256 63.847 64.6998 60.5728 64.6998 56.5485C64.6998 52.5242 61.4256 49.2499 57.4013 49.2499ZM57.4013 61.241C54.8144 61.241 52.7088 59.1354 52.7088 56.5485C52.7088 53.9616 54.8131 51.856 57.4013 51.856C59.9894 51.856 62.0938 53.9616 62.0938 56.5485C62.0938 59.1354 59.9882 61.241 57.4013 61.241Z" fill="white"/>
<path fill-rule="evenodd" clip-rule="evenodd" d="M57.4013 37.4534C53.3488 37.4534 49.592 38.7373 46.5098 40.9146C45.761 40.4282 44.8675 40.144 43.9101 40.144C41.2707 40.144 39.1229 42.2918 39.1229 44.9312C39.1229 46.169 39.5952 47.2979 40.3683 48.1491C39.1587 50.6426 38.4778 53.4368 38.4778 56.3898C38.4778 66.8307 46.9667 75.3248 57.4013 75.3248C67.8358 75.3248 76.3248 66.8307 76.3248 56.3898C76.3248 45.9488 67.8358 37.4534 57.4013 37.4534ZM43.9101 42.7514C45.112 42.7514 46.0912 43.7293 46.0912 44.9325C46.0912 46.1344 45.1133 47.1136 43.9101 47.1136C42.7069 47.1136 41.729 46.1357 41.729 44.9325C41.7302 43.7293 42.7082 42.7514 43.9101 42.7514ZM57.4013 72.7174C48.4042 72.7174 41.0838 65.392 41.0838 56.3885C41.0838 53.9411 41.6266 51.6192 42.5955 49.5328C43.0141 49.6518 43.4544 49.7184 43.9101 49.7184C46.5494 49.7184 48.6973 47.5706 48.6973 44.9312C48.6973 44.2003 48.5322 43.5066 48.2378 42.8858C50.8515 41.1027 54.0067 40.0595 57.4013 40.0595C66.3984 40.0595 73.7187 47.385 73.7187 56.3885C73.7187 65.3933 66.3984 72.7174 57.4013 72.7174Z" fill="white"/>
<path fill-rule="evenodd" clip-rule="evenodd" d="M87.6912 53.8093C88.7254 54.2765 89.4461 55.3146 89.4461 56.5229C89.4461 57.7389 88.7152 58.7846 87.6707 59.2467C86.5123 71.6794 77.8365 81.9616 66.2461 85.4931C66.0618 88.0083 63.9574 90 61.3949 90C59.297 90 57.505 88.665 56.8227 86.8C40.3248 86.4902 27 72.9747 27 56.4038C27 39.6384 40.6384 26 57.4013 26C73.2912 26 86.3702 38.2547 87.6912 53.8093ZM59.1357 85.1347C59.1357 86.3802 60.1494 87.3939 61.3949 87.3939C62.6403 87.3939 63.6528 86.3802 63.6541 85.1347C63.6541 83.8893 62.6403 82.8755 61.3949 82.8755C60.1494 82.8755 59.1357 83.8893 59.1357 85.1347ZM61.3949 80.2669C63.2829 80.2669 64.9213 81.3485 65.7277 82.9242C76.1584 79.6422 83.9562 70.3635 85.0608 59.1469C84.1251 58.6451 83.489 57.6582 83.489 56.5216C83.489 55.3773 84.1354 54.3853 85.0826 53.8861C83.8064 39.7344 71.8806 28.6061 57.4026 28.6061C42.0758 28.6061 29.6074 41.0758 29.6074 56.4026C29.6074 71.4682 41.6547 83.7728 56.6218 84.1875C57.0634 81.9552 59.0358 80.2669 61.3949 80.2669Z" fill="white"/>
</svg>
