<svg width="116" height="117" viewBox="0 0 116 117" fill="none" xmlns="http://www.w3.org/2000/svg">
<path fill-rule="evenodd" clip-rule="evenodd" d="M30.9615 17.3365C30.5128 16.8878 29.7852 16.8878 29.3365 17.3365C28.8878 17.7852 28.8878 18.5128 29.3365 18.9615L40.3276 29.9525C40.7763 30.4012 41.5038 30.4012 41.9525 29.9525C42.4012 29.5038 42.4012 28.7763 41.9525 28.3276L30.9615 17.3365ZM33.1615 30.5257C32.7128 30.077 31.9853 30.077 31.5366 30.5257C31.0879 30.9744 31.0879 31.7019 31.5366 32.1507L42.6432 43.2573C40.3192 46.3719 38.9434 50.2354 38.9434 54.4203C38.9434 64.7396 47.3089 73.105 57.6282 73.105C61.813 73.105 65.6766 71.7292 68.7912 69.4052L79.8971 80.5112C80.3458 80.9599 81.0733 80.9599 81.522 80.5112C81.9707 80.0624 81.9707 79.3349 81.522 78.8862L70.5511 67.9154C74.1019 64.5142 76.3129 59.7254 76.3129 54.4203C76.3129 44.101 67.9475 35.7355 57.6282 35.7355C52.323 35.7355 47.5343 37.9465 44.1331 41.4973L33.1615 30.5257ZM64.5095 76.6879C64.9582 76.2392 65.6857 76.2392 66.1344 76.6879L85.9182 96.4718C86.367 96.9205 86.367 97.648 85.9182 98.0967C85.4695 98.5454 84.742 98.5454 84.2933 98.0967L64.5095 78.3129C64.0608 77.8642 64.0608 77.1367 64.5095 76.6879Z" fill="white"/>
</svg>
