<svg width="116" height="117" viewBox="0 0 116 117" fill="none" xmlns="http://www.w3.org/2000/svg">
<path fill-rule="evenodd" clip-rule="evenodd" d="M64.585 56.0046C60.6478 60.5044 53.085 61.338 49.085 61.5046C46.0851 63.0048 48.4178 65.9491 50.0851 66.5048C51.5852 67.0048 54.1698 66.8095 56.5851 66.0044C59.0002 65.1994 60.6952 64.3943 61.902 63.8212L61.902 63.8212L61.902 63.8212C62.9439 63.3264 63.6218 63.0044 64.0851 63.0044C65.085 63.0044 66.3251 63.4448 66.5851 65.0044C67.0851 68.0044 58.585 74.9187 42.585 74.0044C25.085 73.0044 29.9295 53.1083 40.585 46.0046C49.5851 40.0045 64.9673 39.27 67.585 44.5046C69.5851 48.5044 68.0851 52.0044 64.585 56.0046ZM51.585 54.0044C52.6583 54.3621 53.585 54.3376 54.085 54.0042C53.5851 55.0044 52.6006 56.3347 51.0851 57.0044C50.9692 57.0556 50.8572 57.1071 50.7481 57.1572C50.0005 57.5004 49.3908 57.7804 48.5848 57.5044C45.7893 56.547 46.9081 52.6934 48.0853 50.0044C49.1388 47.598 50.5849 45.5044 53.0849 45.5044C54.5849 45.5044 56.5849 47.5044 55.085 51.5042C54.1362 47.0768 51.3422 48.35 50.585 50.5044C50.145 51.7562 50.0851 53.5046 51.585 54.0044ZM76.3201 45.9645C76.2336 46.4399 75.8195 46.7854 75.3363 46.7854H72.1507C71.4259 46.7854 70.8048 47.3037 70.675 48.0168L70.6262 48.2845C70.4586 49.2053 71.166 50.0531 72.102 50.0531H74.3774C75.0014 50.0531 75.473 50.6183 75.3612 51.2322L74.8679 53.9427C74.745 54.618 75.2637 55.2397 75.9501 55.2397H77.0353C77.5669 55.2397 78.0224 54.8596 78.1175 54.3367L78.7478 50.874C78.8344 50.3986 79.2485 50.0531 79.7317 50.0531H82.9179C83.6427 50.0531 84.2639 49.5348 84.3937 48.8217L84.4424 48.554C84.61 47.6332 83.9026 46.7854 82.9666 46.7854H80.6905C80.0665 46.7854 79.5949 46.2202 79.7067 45.6063L80.2001 42.8956C80.323 42.2203 79.8043 41.5986 79.1179 41.5986H78.0326C77.5011 41.5986 77.0456 41.9787 76.9504 42.5016L76.3201 45.9645Z" fill="white"/>
</svg>
