<svg width="116" height="117" viewBox="0 0 116 117" fill="none" xmlns="http://www.w3.org/2000/svg">
<rect width="64" height="64" transform="translate(26 26)" fill="white"/>
<path d="M90 88.906V27.094C90 26.4898 89.5102 26 88.906 26H58H27.094C26.4898 26 26 26.4898 26 27.094V88.906C26 89.5102 26.4898 90 27.094 90H88.906C89.5102 90 90 89.5102 90 88.906Z" fill="white"/>
<path d="M38.8546 45.1453C37.323 47.9897 30.1937 51.6182 26.8204 53.0769V88.359L40.4956 88.906L48.1538 76.0513L51.7093 72.7692L57.1794 75.5043L66.7521 80.7008H69.4871L71.6751 78.2393L74.6837 72.7692L81.2478 65.3846L81.7948 63.1966L72.4957 52.5299L70.8546 48.4273L69.4871 46.2393L60.735 39.4017L59.6409 36.9402L56.6324 35.2991L52.5298 36.1196L51.7093 38.0342L49.2478 39.4017L45.6922 38.0342H41.3162L38.8546 40.7692V45.1453Z" fill="black"/>
<path fill-rule="evenodd" clip-rule="evenodd" d="M88.359 27.641H27.641V88.359H88.359V27.641ZM90 27.094V88.906C90 89.5102 89.5102 90 88.906 90H27.094C26.4898 90 26 89.5102 26 88.906V27.094C26 26.4898 26.4898 26 27.094 26H88.906C89.5102 26 90 26.4898 90 27.094Z" fill="white"/>
<path fill-rule="evenodd" clip-rule="evenodd" d="M66.8166 42.9598C64.9592 41.424 62.8538 39.8684 61.3431 38.9742C61.3288 38.8995 61.3039 38.8256 61.2675 38.7545L60.6257 37.4995C58.4844 33.3122 52.317 33.5219 50.4823 37.8543C50.4574 37.913 50.4399 37.973 50.4293 38.0333C49.825 38.1917 49.2595 38.3879 48.7541 38.6237C47.8874 38.0378 46.5063 37.459 45.0234 37.2373C43.2178 36.9672 41.0642 37.201 39.444 38.8214C37.824 40.4414 37.5083 42.5776 38.3423 44.603L38.3584 44.6418C38.244 44.6868 38.138 44.7582 38.0501 44.8557C36.5132 46.5589 32.1077 50.4932 26.9653 52.4438C26.5416 52.6046 26.3284 53.0783 26.4892 53.502C26.6499 53.9257 27.1237 54.1389 27.5474 53.9782C32.8974 51.9488 37.4311 47.9492 39.1625 46.0712C40.1675 47.4805 41.7389 48.7511 43.7755 49.7158C44.185 49.9098 44.6742 49.7351 44.8682 49.3255C45.0622 48.916 44.8875 48.4267 44.478 48.2328C42.0054 47.0616 40.4784 45.4805 39.8597 43.9782C39.2578 42.5165 39.4891 41.0971 40.6044 39.9817C41.7194 38.8666 43.2614 38.633 44.7806 38.8602C46.3209 39.0906 47.6381 39.7686 48.1202 40.2009C48.3829 40.4365 48.7667 40.4777 49.0735 40.3034C50.3453 39.5804 52.4767 39.1658 54.7114 39.1612C56.9468 39.1566 59.0804 39.5627 60.3613 40.3011C61.7649 41.1102 63.8748 42.6567 65.7709 44.2245C66.7149 45.005 67.5928 45.7801 68.2919 46.4584C69.0109 47.156 69.4813 47.6953 69.6706 48.0135C70.1278 48.7823 70.3407 49.3761 70.5034 49.9347C70.5431 50.0711 70.5819 50.2147 70.6223 50.3641L70.6224 50.3645C70.7417 50.8053 70.8746 51.2969 71.0846 51.8052C71.4344 52.6518 72.2484 53.7948 73.1891 54.9715C74.1502 56.1737 75.3115 57.4928 76.4273 58.7125C77.5445 59.9336 78.623 61.0624 79.4218 61.8856C79.6056 62.075 79.7747 62.2483 79.9261 62.4029L76.0585 62.7897C75.8245 62.8131 75.6189 62.9551 75.5142 63.1657C75.4096 63.3764 75.4205 63.626 75.5432 63.8267L75.831 64.2976C76.5795 65.522 77.1194 66.8612 77.4297 68.2604C76.8282 69.0282 76.002 70.0777 75.0307 71.0519C74.3892 71.6952 73.7145 72.2731 73.0425 72.6861C72.3653 73.1022 71.7472 73.3161 71.2036 73.3161C69.7711 73.3161 68.8262 73.1294 68.2614 72.9588C67.9788 72.8734 67.7898 72.7916 67.6812 72.7382C67.6268 72.7114 67.5922 72.6916 67.5759 72.6818L67.5664 72.676C67.1992 72.423 66.6954 72.5096 66.4344 72.8735C66.1702 73.2417 66.2546 73.7544 66.6228 74.0185L67.1011 73.3518C66.6228 74.0185 66.6232 74.0188 66.6236 74.0191L66.6245 74.0198L66.6264 74.0211L66.6304 74.0239L66.6397 74.0304L66.6491 74.0368L66.6635 74.0463C66.6816 74.0583 66.7044 74.0727 66.732 74.0892C66.7872 74.1224 66.8616 74.1639 66.9568 74.2107C67.1473 74.3044 67.4199 74.4189 67.7869 74.5297C68.5212 74.7515 69.6276 74.9572 71.2036 74.9572C71.8565 74.9572 72.4904 74.786 73.0863 74.5187C72.6619 75.3166 72.138 76.1659 71.5597 76.9462C71.0018 77.6989 70.4132 78.3598 69.8395 78.8402C69.252 79.3321 68.7564 79.5705 68.3797 79.6116C66.7606 79.7885 65.2847 79.3858 63.7287 78.5989C62.3906 77.9221 61.0467 76.9914 59.5218 75.9352C59.2435 75.7425 58.9592 75.5456 58.6678 75.3453C57.5269 74.5611 56.3166 73.9 55.0751 73.3288L48.8472 70.4633C46.1387 69.2171 43.7301 67.6983 42.957 65.2306C42.5354 63.8852 42.3395 62.1838 42.8073 60.1787C42.9103 59.7374 42.636 59.2961 42.1947 59.1932C41.7534 59.0902 41.3122 59.3645 41.2092 59.8058C40.6677 62.1265 40.8915 64.1271 41.391 65.7213C42.399 68.9385 45.4578 70.7103 48.1613 71.9541L50.4326 72.9991C48.9217 74.0675 47.644 75.4405 46.6854 77.0354L39.7081 88.6429C39.4746 89.0313 39.6002 89.5354 39.9886 89.7689C40.377 90.0023 40.8811 89.8768 41.1146 89.4884L48.0919 77.8808C49.1008 76.2023 50.5123 74.8038 52.1968 73.8109L54.3892 74.8196C55.5626 75.3595 56.6885 75.9761 57.7382 76.6976C58.0167 76.8891 58.2927 77.0803 58.5665 77.2701L58.5666 77.2702C60.0868 78.3238 61.5399 79.3309 62.9881 80.0633C64.7235 80.941 66.5239 81.4651 68.5578 81.243C69.4039 81.1506 70.2019 80.6771 70.893 80.0984C71.598 79.5081 72.2731 78.7395 72.8781 77.9233C74.0833 76.2973 75.0895 74.3732 75.5378 73.0284C75.5633 72.9518 75.5769 72.8741 75.5796 72.7973C75.7904 72.6056 75.9951 72.4088 76.1928 72.2105C77.2636 71.1366 78.2005 69.9395 78.8018 69.1712C78.9698 68.9566 79.1116 68.7754 79.2228 68.6397C79.2648 68.5885 79.2995 68.5338 79.3271 68.4768C79.6817 68.0846 80.1452 67.5467 80.5986 66.9452C81.0604 66.3326 81.5268 65.6344 81.8537 64.9444C82.169 64.2788 82.412 63.5038 82.2668 62.7872C82.2443 62.6762 82.1959 62.5766 82.1288 62.4936C82.0988 62.3377 82.0233 62.1888 81.9024 62.0683L81.9014 62.0673L81.8798 62.0457L81.8113 61.9771C81.7511 61.9166 81.6623 61.8272 81.5486 61.7123C81.3214 61.4824 80.995 61.1504 80.5994 60.7427C79.8079 59.9271 78.7411 58.8105 77.6381 57.6048C76.5336 56.3976 75.3997 55.1086 74.4709 53.9468C73.5217 52.7595 72.8508 51.7825 72.6013 51.1785C72.4343 50.7744 72.3407 50.4283 72.2306 50.0212L72.2304 50.0208C72.1849 49.8524 72.1365 49.6736 72.079 49.4759C71.8879 48.8199 71.626 48.0909 71.081 47.1746C70.7691 46.6503 70.1538 45.9785 69.4347 45.2807C68.6957 44.5636 67.7832 43.759 66.8166 42.9598ZM52.4781 37.6527C54.0997 35.5113 57.6113 35.5894 59.0491 38.0361C57.7135 37.6803 56.1894 37.5171 54.708 37.5202C53.9646 37.5217 53.2116 37.5651 52.4781 37.6527ZM79.5066 66.122C79.1922 66.5391 78.8702 66.9263 78.5872 67.2506C78.2785 66.1328 77.8353 65.0557 77.2668 64.0432L80.8748 63.6824C80.8226 63.8781 80.7387 64.1038 80.6179 64.3589C80.3471 64.9304 79.9416 65.545 79.5066 66.122ZM62.0158 53.3795L64.14 52.8029L65.6912 54.3643L63.5671 54.9409L62.0158 53.3795ZM64.314 51.6221C64.4089 51.5963 64.5103 51.6235 64.5797 51.6933L64.7187 51.8332L64.7215 51.8304L68.2794 55.4159C68.4922 55.6304 68.4909 55.9767 68.2764 56.1895C68.062 56.4023 67.7156 56.401 67.5028 56.1865L66.5801 55.2567L63.3931 56.1217C63.2981 56.1475 63.1967 56.1203 63.1274 56.0506L60.7663 53.674L60.4609 53.7546C60.1688 53.8317 59.8695 53.6573 59.7924 53.3652C59.7154 53.0731 59.8897 52.7738 60.1818 52.6968L64.2714 51.6179L64.2753 51.6326L64.314 51.6221Z" fill="white"/>
</svg>
