<svg width="116" height="117" viewBox="0 0 116 117" fill="none" xmlns="http://www.w3.org/2000/svg">
<path d="M74.5698 60.7464C74.467 60.4086 73.9887 60.4086 73.8859 60.7464L71.7697 67.6991C71.735 67.8131 71.6459 67.9023 71.5319 67.937L64.5791 70.0532C64.2413 70.156 64.2413 70.6342 64.5791 70.7371L71.5319 72.8532C71.6459 72.8879 71.735 72.9771 71.7697 73.0911L73.8859 80.0439C73.9887 80.3816 74.467 80.3816 74.5698 80.0439L76.686 73.0911C76.7207 72.9771 76.8099 72.8879 76.9238 72.8532L83.8766 70.7371C84.2144 70.6342 84.2144 70.156 83.8766 70.0532L76.9238 67.937C76.8099 67.9023 76.7207 67.8131 76.686 67.6991L74.5698 60.7464Z" fill="#EFEFEF"/>
<path d="M48.3972 35.821C48.2768 35.5229 47.8547 35.5229 47.7343 35.821L43.1395 47.2036C43.1005 47.3001 43.0214 47.3749 42.9229 47.4083L30.5971 51.5892C30.2736 51.6989 30.2736 52.1564 30.5971 52.2661L42.9229 56.447C43.0214 56.4804 43.1005 56.5552 43.1395 56.6517L47.7343 68.0342C47.8547 68.3324 48.2768 68.3324 48.3972 68.0342L52.992 56.6517C53.031 56.5552 53.1101 56.4804 53.2087 56.447L65.5344 52.2661C65.8579 52.1564 65.8579 51.6989 65.5344 51.5892L53.2087 47.4083C53.1101 47.3749 53.031 47.3001 52.992 47.2036L48.3972 35.821Z" fill="#EFEFEF"/>
</svg>
