<svg width="116" height="117" viewBox="0 0 116 117" fill="none" xmlns="http://www.w3.org/2000/svg">
<path d="M70.9862 64.7425C70.9217 64.3691 70.7289 64.0306 70.4418 63.7865C70.1547 63.5423 69.7915 63.4081 69.4161 63.4075H59.4602L67.6114 49.0559C67.7475 48.8049 67.8174 48.5228 67.8144 48.2366C67.8114 47.9504 67.7355 47.6698 67.5941 47.4218C67.4527 47.1738 67.2505 46.9667 67.0069 46.8203C66.7634 46.674 66.4866 46.5933 66.2033 46.5861H56.2474L64.3952 32.2346C64.5956 31.8808 64.6558 31.4635 64.5638 31.0667C64.4717 30.6699 64.2342 30.323 63.8991 30.0959C63.564 29.8687 63.1561 29.7782 62.7575 29.8424C62.3589 29.9067 61.9993 30.1211 61.7509 30.4423L46.3312 50.4711C46.1126 50.7578 45.9962 51.1105 46.0006 51.4723C45.9974 51.5842 46.0063 51.6961 46.0271 51.8061C46.0929 52.1795 46.2865 52.5177 46.574 52.7617C46.8616 53.0057 47.2248 53.14 47.6004 53.1411H57.5696L49.4217 67.4927C49.2849 67.7435 49.2144 68.0257 49.2168 68.3121C49.2193 68.5985 49.2947 68.8794 49.4358 69.1279C49.5769 69.3763 49.779 69.5839 50.0226 69.7306C50.2661 69.8774 50.543 69.9584 50.8265 69.9658H60.7659L52.6114 84.2806C52.4193 84.6342 52.365 85.0475 52.4593 85.4394C52.5536 85.8312 52.7897 86.1733 53.1211 86.3984C53.4525 86.6234 53.8553 86.7151 54.2503 86.6555C54.6453 86.5959 55.004 86.3893 55.2558 86.0763L70.6689 66.0842C70.8881 65.7979 71.0047 65.4449 70.9994 65.0829C71.0024 64.9711 70.9936 64.8592 70.973 64.7492" fill="white"/>
</svg>
