<svg width="116" height="117" viewBox="0 0 116 117" fill="none" xmlns="http://www.w3.org/2000/svg">
<path d="M89.7269 58.3562C89.7269 75.6732 75.6877 89.7124 58.3707 89.7124C41.0392 89.7269 27 75.6877 27 58.3562C27 41.0392 41.0392 27 58.3562 27C75.6877 27 89.7269 41.0392 89.7269 58.3562Z" fill="white"/>
<path d="M60.3 77.0218H51.8445C50.4087 77.0218 49.0309 76.4997 47.9576 75.557C46.6813 74.4402 45.9562 72.8304 45.9562 71.1335L45.9707 57.979C45.9707 57.1088 46.6813 56.3981 47.5515 56.3981H53.904H54.8757L51.1484 42.4749C50.9308 41.6772 51.0468 40.8505 51.4674 40.1544C51.888 39.4437 52.5552 38.9506 53.3674 38.7621C54.9337 38.385 56.5581 39.4002 56.9932 41.0101L60.387 53.657L63.7808 41.0101C64.2159 39.4002 65.8402 38.385 67.4066 38.7621C68.2043 38.9506 68.8859 39.4437 69.3065 40.1544C69.7271 40.865 69.8432 41.6917 69.6256 42.4749L66.2028 55.6294V71.119C66.2028 72.8159 65.4777 74.4257 64.2014 75.5425C63.1136 76.4997 61.7358 77.0218 60.3 77.0218ZM47.5515 57.8484C47.479 57.8484 47.421 57.9064 47.421 57.979L47.4065 58.9217V71.119C47.4065 72.3953 47.9576 73.6135 48.9149 74.4547C49.727 75.1654 50.7713 75.557 51.8445 75.557H60.3C61.3732 75.557 62.4175 75.1654 63.2296 74.4547C64.1869 73.6135 64.738 72.3953 64.738 71.119L64.767 55.3539L68.2188 42.0978C68.3348 41.6772 68.2768 41.2566 68.0592 40.8795C67.8417 40.517 67.4936 40.2559 67.073 40.1544C66.2753 39.9658 65.4196 40.5025 65.1876 41.3581L61.6923 54.3821C61.5328 54.9768 61.0106 55.3829 60.387 55.3829C59.7779 55.3829 59.2412 54.9768 59.0962 54.3821L55.6009 41.3581C55.3688 40.5025 54.5276 39.9658 53.7155 40.1544C53.2949 40.2559 52.9468 40.5025 52.7292 40.8795C52.5117 41.2421 52.4537 41.6772 52.5552 42.0833L56.7757 57.8339H53.904L47.5515 57.8484Z" fill="black"/>
<path d="M53.5412 71.9169C51.8733 71.9169 50.5245 70.5536 50.5245 68.9002L50.539 56.3984H53.5412V57.8487H51.9894L51.9749 68.9002C51.9749 69.7559 52.671 70.4666 53.5412 70.4666C53.9618 70.4666 54.3534 70.3071 54.6435 70.017C54.9335 69.7269 55.1076 69.3353 55.1076 68.9147L55.1221 57.1235H56.5724L56.5579 68.9147C56.5579 69.7124 56.2388 70.4811 55.6732 71.0467C55.1076 71.6124 54.3389 71.9169 53.5412 71.9169Z" fill="black"/>
<path d="M48.9729 70.7852C48.9729 70.7852 48.9584 70.7852 48.9729 70.7852C47.305 70.7852 45.9562 69.4364 45.9562 67.7685L45.9707 59.8352H47.421L47.4065 67.7685C47.4065 68.6242 48.1027 69.3349 48.9729 69.3349C49.3935 69.3349 49.7851 69.1753 50.0751 68.8853C50.3652 68.5952 50.5392 68.2036 50.5392 67.783L50.5537 57.1376H52.0041L51.9896 67.783C51.9896 68.5807 51.6705 69.3494 51.1049 69.915C50.5392 70.4806 49.7706 70.7852 48.9729 70.7852Z" fill="black"/>
<path d="M60.1543 70.0749C58.8345 67.3918 59.0666 64.172 59.0666 64.172L56.572 63.6064C53.2798 62.9828 51.5829 61.8515 51.3218 59.1104C51.0608 57.6746 51.5104 57.1814 52.8737 57.486L65.4626 60.0386V69.7848" fill="white"/>
<path d="M59.5017 70.394C58.4575 68.262 58.3269 65.8544 58.3269 64.7377L56.4125 64.3026C53.6134 63.7804 50.9447 62.7942 50.6112 59.1684C50.5096 58.5882 50.4226 57.66 51.0318 57.0799C51.6844 56.4563 52.7141 56.6883 53.0477 56.7753L66.2022 59.4439V69.7848H64.7519V60.6332L52.7432 58.1967C52.2065 58.0806 52.047 58.1386 52.018 58.1531C52.018 58.1531 51.931 58.3272 52.047 58.9798C52.2645 61.2714 53.4828 62.2866 56.7171 62.8812L59.8353 63.5919L59.7918 64.2155C59.7918 64.2445 59.6032 67.2757 60.807 69.7558L59.5017 70.394Z" fill="black"/>
<path d="M58.3562 84.7521C43.8093 84.7521 31.9746 72.9173 31.9746 58.3705C31.9746 43.8237 43.8093 31.989 58.3562 31.989C72.903 31.989 84.7377 43.8237 84.7377 58.3705C84.7522 72.9173 72.9175 84.7521 58.3562 84.7521ZM58.3562 33.4248C44.607 33.4248 33.4249 44.6068 33.4249 58.356C33.4249 72.1052 44.607 83.2872 58.3562 83.2872C72.1053 83.2872 83.2874 72.1052 83.2874 58.356C83.3019 44.6068 72.1053 33.4248 58.3562 33.4248Z" fill="black"/>
</svg>
