<svg width="116" height="117" viewBox="0 0 116 117" fill="none" xmlns="http://www.w3.org/2000/svg">
<path opacity="0.8" d="M42.9189 54.575C42.9189 55.275 42.9189 61.3749 42.9189 63.7749C42.8189 64.4749 43.219 65.2749 43.819 65.6749C48.519 69.1749 52.319 72.3749 57.119 75.6749C57.719 76.1749 58.519 76.1749 59.119 75.6749C59.919 75.0749 70.319 68.2749 72.319 66.8749C73.119 66.3749 73.619 65.3749 73.619 64.3749C73.619 61.6749 73.619 56.075 73.619 54.575L80.619 59.075C81.219 59.475 81.619 60.175 81.519 60.975C81.519 63.875 81.519 66.675 81.519 69.475C81.619 70.275 81.219 70.975 80.619 71.475C73.719 76.775 66.1189 81.0749 59.2189 86.3749C58.1189 87.1749 58.1189 87.1749 57.0189 86.3749C49.8189 80.8749 43.319 76.3749 36.0189 70.8749C35.3189 70.4749 34.9189 69.6749 35.0189 68.8749C35.0189 66.4749 35.0189 63.5749 35.0189 61.1749C34.9189 60.4749 35.219 59.7749 35.819 59.3749C37.819 57.8749 42.5189 54.775 42.9189 54.575Z" fill="white"/>
<path d="M81.4 54.275C80.7 53.775 66.9 45.075 59.5 40.475C58 39.475 58 39.475 56.5 40.475C49.7 44.975 35.7 54.675 35 55.075C35 53.975 35 48.375 35 45.575C35 44.575 35.5 43.675 36.3 43.175C43.1 38.675 50.2 33.975 57 29.375C57.6 28.875 58.6 28.875 59.2 29.375C66.3 34.075 73.1 38.875 80.2 43.475C81 43.875 81.4 44.675 81.3 45.575C81.3 47.975 81.4 53.575 81.4 54.275Z" fill="white"/>
</svg>
