<svg width="116" height="117" viewBox="0 0 116 117" fill="none" xmlns="http://www.w3.org/2000/svg">
<path fill-rule="evenodd" clip-rule="evenodd" d="M48.9664 32.5077C47.3927 31.286 45.1022 32.4075 45.1022 34.3997V44.838C45.1022 46.1609 44.0298 47.2333 42.7069 47.2333H38.3953C37.0724 47.2333 36 48.3057 36 49.6286C36 50.9515 37.0724 52.0239 38.3953 52.0239H41.7302L41.7488 52.0238H53.7253C55.0482 52.0238 56.1206 53.0963 56.1206 54.4191C56.1206 55.742 55.0482 56.8145 53.7253 56.8145H45.1022C45.1022 56.8145 45.1022 56.8145 45.1022 56.8145V56.8145C45.1022 56.8145 45.1022 56.8145 45.1022 56.8145H43.6649C42.342 56.8145 41.2696 57.8869 41.2696 59.2098C41.2696 60.5264 42.3318 61.5949 43.646 61.605H46.5392C47.8621 61.605 48.9345 62.6774 48.9345 64.0003C48.9345 65.3232 47.8621 66.3956 46.5392 66.3956H45.1022C45.1022 66.3956 45.1022 66.3956 45.1022 66.3957V66.3957C45.1022 66.3957 45.1022 66.3957 45.1022 66.3957H39.3535C38.0306 66.3957 36.9582 67.4681 36.9582 68.791C36.9582 70.1139 38.0306 71.1863 39.3535 71.1863H42.7069C44.0298 71.1863 45.1022 72.2587 45.1022 73.5816V81.1452C45.1022 83.1374 47.3927 84.2589 48.9664 83.0372L79.0736 59.6645C80.3089 58.7056 80.3089 56.8393 79.0736 55.8804L48.9664 32.5077Z" fill="white"/>
</svg>
